<?xml version="1.0" standalone="no"?>
<!DOCTYPE svg PUBLIC "-//W3C//DTD SVG 20010904//EN"
 "http://www.w3.org/TR/2001/REC-SVG-20010904/DTD/svg10.dtd">
<svg version="1.0" xmlns="http://www.w3.org/2000/svg"
 width="512.000000pt" height="512.000000pt" viewBox="0 0 512.000000 512.000000"
 preserveAspectRatio="xMidYMid meet">

<g transform="translate(0.000000,512.000000) scale(0.100000,-0.100000)"
fill="#000000" stroke="none">
<path d="M2395 3246 c-129 -36 -228 -91 -316 -173 -47 -44 -119 -133 -119
-147 0 -3 46 -6 103 -6 388 0 864 -155 1136 -371 28 -21 53 -39 57 -39 4 0 4
46 2 103 -14 271 -192 509 -458 608 -77 29 -97 33 -220 36 -94 2 -150 -1 -185
-11z m471 -412 c-13 -28 -49 -28 -62 0 -12 27 20 47 52 32 17 -8 19 -14 10
-32z"/>
<path d="M1872 2723 c-4 -10 -7 -85 -7 -168 1 -143 2 -154 32 -231 77 -203
223 -350 425 -427 80 -31 88 -32 238 -32 150 0 158 1 238 32 152 59 284 167
365 300 57 93 57 103 0 153 -271 239 -717 390 -1151 390 -117 0 -133 -2 -140
-17z m216 -141 c16 -11 3 -47 -18 -47 -21 0 -34 36 -18 47 7 4 15 8 18 8 3 0
11 -4 18 -8z m145 -152 c-6 -21 -36 -21 -44 0 -4 8 -2 20 3 27 14 17 47 -5 41
-27z m-165 0 c7 0 7 -7 0 -22 -11 -23 -62 -34 -54 -12 2 6 -1 17 -7 23 -8 8
-7 11 6 11 9 0 17 8 17 18 1 16 1 16 14 0 7 -10 18 -18 24 -18z m453 -31 c10
0 11 -2 2 -6 -7 -2 -13 -13 -13 -22 0 -12 -7 -17 -22 -17 -29 1 -39 34 -18 57
12 13 17 14 26 3 6 -8 17 -14 25 -15z m-316 -113 c18 -7 18 -8 3 -17 -10 -6
-14 -16 -11 -30 5 -19 4 -20 -15 -10 -14 7 -23 8 -27 1 -11 -17 -23 -11 -18 9
3 10 0 22 -6 25 -16 10 -13 26 4 26 9 0 18 7 22 16 5 15 8 15 17 2 6 -8 20
-18 31 -22z m396 4 c10 -26 16 -30 47 -30 l37 -1 -28 -23 c-25 -20 -28 -27
-21 -61 l7 -38 -30 21 c-27 19 -32 20 -49 7 -32 -24 -43 -18 -37 19 4 28 1 37
-16 48 -29 18 -26 28 10 28 24 0 32 6 40 30 6 17 15 30 20 30 6 0 15 -13 20
-30z m445 -26 c-13 -28 -52 -29 -60 -1 -7 28 20 47 49 34 18 -9 20 -14 11 -33z
m-610 -104 c8 0 14 -4 14 -10 0 -5 -4 -10 -10 -10 -5 0 -7 -6 -4 -14 9 -24
-41 -16 -52 8 -7 17 -5 23 11 32 11 5 22 6 23 2 2 -4 10 -8 18 -8z m411 -34
c-11 -23 -62 -33 -53 -11 2 7 -1 18 -7 24 -8 8 -7 11 6 11 9 0 17 4 17 9 0 5
10 4 23 -2 19 -9 22 -14 14 -31z m120 24 c12 0 13 -3 4 -13 -6 -8 -8 -17 -5
-20 4 -3 -3 -5 -15 -4 -25 2 -35 23 -18 42 6 7 14 9 15 4 2 -5 11 -9 19 -9z"/>
</g>
</svg>
