<?xml version="1.0" standalone="no"?>
<!DOCTYPE svg PUBLIC "-//W3C//DTD SVG 20010904//EN"
 "http://www.w3.org/TR/2001/REC-SVG-20010904/DTD/svg10.dtd">
<svg version="1.0" xmlns="http://www.w3.org/2000/svg"
 width="512.000000pt" height="512.000000pt" viewBox="0 0 512.000000 512.000000"
 preserveAspectRatio="xMidYMid meet">

<g transform="translate(0.000000,512.000000) scale(0.100000,-0.100000)"
fill="#000000" stroke="none">
<path d="M320 3350 l0 -660 943 2 942 3 3 103 3 102 1294 0 1295 0 0 105 0
105 -1295 0 -1295 0 0 115 0 115 1295 0 1295 0 0 110 0 110 -1295 0 -1295 0 0
115 0 115 1295 0 1295 0 0 110 0 110 -2240 0 -2240 0 0 -660z m190 554 c0 -9
10 -14 27 -14 25 0 26 -1 8 -20 -10 -11 -15 -28 -12 -40 6 -23 4 -24 -23 -8
-15 10 -22 10 -32 0 -19 -19 -28 -14 -19 10 6 17 3 26 -13 40 l-21 17 27 1
c18 0 29 7 33 20 7 22 25 18 25 -6z m290 0 c0 -8 10 -14 25 -14 28 0 33 -15 9
-24 -11 -4 -14 -13 -10 -31 7 -26 -3 -32 -21 -14 -8 8 -17 8 -33 -1 -21 -11
-22 -10 -17 10 4 16 -1 28 -16 41 l-22 18 28 1 c20 0 30 6 34 20 6 22 23 18
23 -6z m290 0 c0 -9 11 -14 33 -14 l32 0 -24 -19 c-17 -13 -22 -23 -16 -39 7
-24 -4 -29 -22 -11 -8 8 -17 8 -33 -1 -21 -11 -22 -11 -17 11 5 18 1 29 -16
41 l-22 18 28 0 c20 0 30 6 34 20 6 22 23 18 23 -6z m293 6 c4 -14 14 -20 34
-20 l28 0 -22 -18 c-17 -12 -21 -23 -16 -41 5 -22 4 -22 -17 -11 -16 9 -25 9
-33 1 -18 -18 -29 -13 -22 11 6 16 1 26 -16 39 l-24 19 28 0 c20 0 30 6 34 20
3 11 9 20 13 20 4 0 10 -9 13 -20z m324 -20 l28 -1 -22 -18 c-15 -13 -20 -25
-16 -41 5 -20 4 -21 -17 -10 -16 9 -25 9 -33 1 -18 -18 -29 -13 -22 11 6 16 1
26 -16 39 l-24 19 31 0 c24 0 33 5 38 23 l7 22 9 -22 c7 -16 18 -23 37 -23z
m292 0 l26 -1 -22 -18 c-15 -13 -20 -25 -16 -41 5 -20 4 -21 -17 -10 -16 9
-25 9 -33 1 -17 -17 -26 -13 -20 9 3 12 -2 29 -12 40 -18 19 -17 20 7 20 18 0
28 7 32 23 l7 22 11 -22 c7 -15 20 -23 37 -23z m-1313 -140 c27 0 27 0 8 -21
-10 -12 -18 -30 -16 -40 3 -20 -13 -26 -23 -8 -5 7 -15 5 -32 -6 l-25 -17 7
30 c4 22 2 31 -9 35 -24 10 -19 27 8 27 16 0 26 7 30 23 l7 22 9 -22 c6 -16
18 -23 36 -23z m289 0 c30 0 32 -11 5 -28 -16 -10 -18 -16 -10 -38 10 -26 10
-26 -13 -11 -22 14 -27 14 -46 1 -20 -14 -20 -14 -15 15 5 23 2 32 -10 37 -24
9 -19 24 8 24 17 0 27 7 32 22 l7 23 8 -23 c6 -15 17 -22 34 -22z m292 0 c26
0 31 -15 7 -24 -12 -5 -15 -14 -10 -37 6 -29 5 -29 -16 -15 -20 14 -25 14 -45
1 -22 -15 -22 -14 -17 15 5 22 2 31 -10 36 -24 9 -19 24 8 24 17 0 27 7 32 23
l7 22 10 -22 c6 -15 19 -23 34 -23z m290 0 c26 0 31 -15 7 -24 -12 -5 -15 -14
-10 -37 5 -29 5 -29 -15 -15 -19 13 -24 13 -45 -1 -24 -15 -24 -15 -15 8 7 19
4 29 -12 47 l-20 22 26 0 c18 0 28 7 33 23 l7 22 10 -22 c6 -15 19 -23 34 -23z
m263 14 c0 -8 10 -14 25 -14 28 0 34 -17 9 -27 -12 -4 -14 -14 -10 -35 5 -28
5 -28 -15 -14 -19 13 -24 13 -45 -1 -24 -15 -24 -15 -15 8 7 19 4 29 -12 47
l-20 22 27 0 c19 0 29 6 33 20 6 22 23 18 23 -6z m-1310 -120 c0 -9 10 -14 27
-14 25 0 26 -1 8 -20 -10 -11 -15 -28 -12 -40 6 -23 4 -24 -23 -8 -15 10 -22
10 -32 0 -19 -19 -28 -14 -19 10 6 17 3 26 -13 40 l-21 17 27 1 c18 0 29 7 33
20 7 22 25 18 25 -6z m290 0 c0 -8 10 -14 25 -14 28 0 33 -15 9 -24 -11 -4
-14 -13 -10 -31 7 -26 -3 -32 -21 -14 -8 8 -17 8 -33 -1 -21 -11 -22 -10 -17
10 4 16 -1 28 -16 41 l-22 18 28 1 c20 0 30 6 34 20 6 22 23 18 23 -6z m290 0
c0 -9 11 -14 33 -14 l32 0 -24 -19 c-17 -13 -22 -23 -16 -39 7 -24 -4 -29 -22
-11 -8 8 -17 8 -33 -1 -21 -11 -22 -11 -17 11 5 18 1 29 -16 41 l-22 18 28 0
c20 0 30 6 34 20 6 22 23 18 23 -6z m293 6 c4 -14 14 -20 34 -20 l28 0 -22
-18 c-17 -12 -21 -23 -16 -41 5 -22 4 -22 -17 -11 -16 9 -25 9 -33 1 -18 -18
-29 -13 -22 11 6 16 1 26 -16 39 l-24 19 28 0 c20 0 30 6 34 20 3 11 9 20 13
20 4 0 10 -9 13 -20z m324 -20 l28 -1 -22 -18 c-15 -13 -20 -25 -16 -41 5 -20
4 -21 -17 -10 -16 9 -25 9 -33 1 -18 -18 -29 -13 -22 11 6 16 1 26 -16 39
l-24 19 31 0 c24 0 33 5 38 23 l7 22 9 -22 c7 -16 18 -23 37 -23z m292 0 l26
-1 -22 -18 c-15 -13 -20 -25 -16 -41 5 -20 4 -21 -17 -10 -16 9 -25 9 -33 1
-17 -17 -26 -13 -20 9 3 12 -2 29 -12 40 -18 19 -17 20 7 20 18 0 28 7 32 23
l7 22 11 -22 c7 -15 20 -23 37 -23z m-1313 -140 c27 0 27 0 8 -21 -10 -12 -18
-30 -16 -40 4 -21 -8 -25 -26 -7 -9 9 -17 7 -33 -8 l-21 -19 6 31 c5 24 3 33
-8 37 -24 10 -19 27 8 27 16 0 26 7 30 23 l7 22 9 -22 c6 -16 18 -23 36 -23z
m289 0 c30 0 32 -11 5 -28 -16 -10 -18 -16 -10 -38 10 -26 10 -26 -13 -11 -22
14 -27 14 -46 1 -20 -14 -20 -14 -15 15 5 23 2 32 -10 37 -24 9 -19 24 8 24
17 0 27 7 32 22 l7 23 8 -23 c6 -15 17 -22 34 -22z m292 0 c26 0 31 -15 7 -24
-12 -5 -15 -14 -10 -37 6 -29 5 -29 -16 -15 -20 14 -25 14 -45 1 -22 -15 -22
-14 -17 15 5 22 2 31 -10 36 -24 9 -19 24 8 24 17 0 27 7 32 23 l7 22 10 -22
c6 -15 19 -23 34 -23z m290 0 c26 0 31 -15 7 -24 -12 -5 -15 -14 -10 -37 5
-29 5 -29 -15 -15 -19 13 -24 13 -45 -1 -24 -15 -24 -15 -15 8 7 19 4 29 -12
47 l-20 22 26 0 c18 0 28 7 33 23 l7 22 10 -22 c6 -15 19 -23 34 -23z m263 14
c0 -8 10 -14 25 -14 28 0 34 -17 9 -27 -12 -4 -14 -14 -10 -35 5 -28 5 -28
-15 -14 -19 13 -24 13 -45 -1 -24 -15 -24 -15 -15 8 7 19 4 29 -12 47 l-20 22
27 0 c19 0 29 6 33 20 6 22 23 18 23 -6z m-1310 -120 c0 -9 10 -14 27 -14 25
0 26 -1 8 -20 -10 -11 -15 -28 -12 -40 6 -23 4 -24 -23 -8 -15 10 -22 10 -32
0 -19 -19 -28 -14 -19 10 6 17 3 26 -13 40 l-21 17 27 1 c18 0 29 7 33 20 7
22 25 18 25 -6z m290 0 c0 -8 10 -14 25 -14 28 0 33 -15 9 -24 -11 -4 -14 -13
-10 -31 7 -26 -3 -32 -21 -14 -8 8 -17 8 -33 -1 -21 -11 -22 -10 -17 10 4 16
-1 28 -16 41 l-22 18 28 1 c20 0 30 6 34 20 6 22 23 18 23 -6z m290 0 c0 -9
11 -14 33 -14 l32 0 -24 -19 c-17 -13 -22 -23 -16 -39 7 -24 -4 -29 -22 -11
-8 8 -17 8 -33 -1 -21 -11 -22 -11 -17 11 5 18 1 29 -16 41 l-22 18 28 0 c20
0 30 6 34 20 6 22 23 18 23 -6z m293 6 c4 -14 14 -20 34 -20 l28 0 -22 -18
c-17 -12 -21 -23 -16 -41 5 -22 4 -22 -17 -11 -16 9 -25 9 -33 1 -18 -18 -29
-13 -22 11 6 16 1 26 -16 39 l-24 19 28 0 c20 0 30 6 34 20 3 11 9 20 13 20 4
0 10 -9 13 -20z m324 -20 l28 -1 -22 -18 c-15 -13 -20 -25 -16 -41 5 -20 4
-21 -17 -10 -16 9 -25 9 -33 1 -18 -18 -29 -13 -22 11 6 16 1 26 -16 39 l-24
19 31 0 c24 0 33 5 38 23 l7 22 9 -22 c7 -16 18 -23 37 -23z m292 0 l26 -1
-22 -18 c-15 -13 -20 -25 -16 -41 5 -20 4 -21 -17 -10 -16 9 -25 9 -33 1 -17
-17 -26 -13 -20 9 3 12 -2 29 -12 40 -18 19 -17 20 7 20 18 0 28 7 32 23 l7
22 11 -22 c7 -15 20 -23 37 -23z m-1313 -140 c27 0 27 0 8 -21 -10 -12 -18
-30 -16 -40 4 -21 -8 -25 -26 -7 -9 9 -17 7 -33 -8 l-21 -19 6 31 c5 24 3 33
-8 37 -24 10 -19 27 8 27 16 0 26 7 30 23 l7 22 9 -22 c6 -16 18 -23 36 -23z
m289 0 c30 0 32 -11 5 -28 -16 -10 -18 -16 -10 -38 10 -26 10 -26 -13 -11 -22
14 -27 14 -46 1 -20 -14 -20 -14 -15 15 5 23 2 32 -10 37 -24 9 -19 24 8 24
17 0 27 7 32 22 l7 23 8 -23 c6 -15 17 -22 34 -22z m292 0 c26 0 31 -15 7 -24
-12 -5 -15 -14 -10 -37 6 -29 5 -29 -16 -15 -20 14 -25 14 -45 1 -22 -15 -22
-14 -17 15 5 22 2 31 -10 36 -24 9 -19 24 8 24 17 0 27 7 32 23 l7 22 10 -22
c6 -15 19 -23 34 -23z m290 0 c26 0 31 -15 7 -24 -12 -5 -15 -14 -10 -37 5
-29 5 -29 -15 -15 -19 13 -24 13 -45 -1 -24 -15 -24 -15 -15 8 7 19 4 29 -12
47 l-20 22 26 0 c18 0 28 7 33 23 l7 22 10 -22 c6 -15 19 -23 34 -23z m263 14
c0 -8 10 -14 25 -14 28 0 34 -17 9 -27 -12 -4 -14 -14 -10 -35 5 -28 5 -28
-15 -14 -19 13 -24 13 -45 -1 -24 -15 -24 -15 -15 8 7 19 4 29 -12 47 l-20 22
27 0 c19 0 29 6 33 20 6 22 23 18 23 -6z m-1310 -120 c0 -9 10 -14 27 -14 25
0 26 -1 8 -20 -10 -11 -15 -28 -12 -40 6 -23 4 -24 -23 -8 -15 10 -22 10 -32
0 -19 -19 -28 -14 -19 10 6 17 3 26 -13 40 l-21 17 27 1 c18 0 29 7 33 20 7
22 25 18 25 -6z m290 0 c0 -8 10 -14 25 -14 28 0 33 -15 9 -24 -11 -4 -14 -13
-10 -31 7 -26 -3 -32 -21 -14 -8 8 -17 8 -33 -1 -21 -11 -22 -10 -17 10 4 16
-1 28 -16 41 l-22 18 28 1 c20 0 30 6 34 20 6 22 23 18 23 -6z m290 0 c0 -9
11 -14 33 -14 l32 0 -24 -19 c-17 -13 -22 -23 -16 -39 7 -24 -4 -29 -22 -11
-8 8 -17 8 -33 -1 -21 -11 -22 -11 -17 11 5 18 1 29 -16 41 l-22 18 28 0 c20
0 30 6 34 20 6 22 23 18 23 -6z m293 6 c4 -14 14 -20 34 -20 l28 0 -22 -18
c-17 -12 -21 -23 -16 -41 5 -22 4 -22 -17 -11 -16 9 -25 9 -33 1 -18 -18 -29
-13 -22 11 6 16 1 26 -16 39 l-24 19 28 0 c20 0 30 6 34 20 3 11 9 20 13 20 4
0 10 -9 13 -20z m324 -20 l28 -1 -22 -18 c-15 -13 -20 -25 -16 -41 5 -20 4
-21 -17 -10 -16 9 -25 9 -33 1 -18 -18 -28 -12 -21 13 4 18 0 28 -17 40 l-23
16 31 0 c23 0 32 5 37 23 l7 22 9 -22 c7 -16 18 -23 37 -23z m292 0 l26 -1
-22 -18 c-15 -13 -20 -25 -16 -41 5 -20 4 -21 -17 -10 -16 9 -25 9 -33 1 -17
-17 -26 -13 -20 9 3 12 -2 29 -12 40 -18 19 -17 20 7 20 18 0 28 7 32 23 l7
22 11 -22 c7 -15 20 -23 37 -23z m-1313 -140 c27 0 27 0 8 -21 -10 -12 -18
-30 -16 -40 4 -21 -8 -25 -26 -7 -9 9 -17 7 -33 -8 l-21 -19 6 31 c5 24 3 33
-8 37 -24 10 -19 27 8 27 16 0 26 7 30 23 l7 22 9 -22 c6 -16 18 -23 36 -23z
m289 0 c30 0 32 -11 5 -28 -16 -10 -18 -16 -10 -38 10 -26 10 -26 -13 -11 -22
14 -27 14 -46 1 -20 -14 -20 -14 -15 15 5 23 2 32 -10 37 -24 9 -19 24 8 24
17 0 27 7 32 22 l7 23 8 -23 c6 -15 17 -22 34 -22z m292 0 c26 0 31 -15 7 -24
-12 -5 -15 -14 -10 -37 6 -29 5 -29 -16 -15 -20 14 -25 14 -45 1 -22 -15 -22
-14 -17 15 5 22 2 31 -10 36 -24 9 -19 24 8 24 17 0 27 7 32 23 l7 22 10 -22
c6 -15 19 -23 34 -23z m290 0 c26 0 31 -15 7 -24 -12 -5 -15 -14 -10 -37 5
-29 5 -29 -15 -15 -19 13 -24 13 -45 -1 -24 -15 -24 -15 -15 8 7 19 4 29 -12
47 l-20 22 26 0 c18 0 28 7 33 23 l7 22 10 -22 c6 -15 19 -23 34 -23z m263 14
c0 -8 10 -14 25 -14 28 0 34 -17 9 -27 -12 -4 -14 -14 -10 -35 5 -28 5 -28
-15 -14 -19 13 -24 13 -45 -1 -24 -15 -24 -15 -15 8 7 19 4 29 -12 47 l-20 22
27 0 c19 0 29 6 33 20 6 22 23 18 23 -6z m-1310 -120 c0 -9 10 -14 27 -14 25
0 26 -1 8 -20 -10 -11 -15 -28 -12 -40 6 -23 4 -24 -23 -8 -15 10 -22 10 -32
0 -19 -19 -28 -14 -19 10 6 17 3 26 -13 40 l-21 17 27 1 c18 0 29 7 33 20 7
22 25 18 25 -6z m290 0 c0 -8 10 -14 25 -14 28 0 33 -15 9 -24 -11 -4 -14 -13
-10 -31 7 -26 -3 -32 -21 -14 -8 8 -17 8 -33 -1 -21 -11 -22 -10 -17 10 4 16
-1 28 -16 41 l-22 18 28 1 c20 0 30 6 34 20 6 22 23 18 23 -6z m290 0 c0 -9
11 -14 33 -14 l32 0 -24 -19 c-17 -13 -22 -23 -16 -39 7 -24 -4 -29 -22 -11
-8 8 -17 8 -33 -1 -21 -11 -22 -11 -17 11 5 18 1 29 -16 41 l-22 18 28 0 c20
0 30 6 34 20 6 22 23 18 23 -6z m293 6 c4 -14 14 -20 34 -20 l28 0 -22 -18
c-17 -12 -21 -23 -16 -41 5 -22 4 -22 -17 -11 -16 9 -25 9 -33 1 -18 -18 -29
-13 -22 11 6 16 1 26 -16 39 l-24 19 28 0 c20 0 30 6 34 20 3 11 9 20 13 20 4
0 10 -9 13 -20z m324 -20 l28 -1 -22 -18 c-15 -13 -20 -25 -16 -41 5 -20 4
-21 -17 -10 -16 9 -25 9 -33 1 -18 -18 -28 -12 -21 13 4 18 0 28 -17 40 l-23
16 31 0 c23 0 32 5 37 23 l7 22 9 -22 c7 -16 18 -23 37 -23z m292 0 l26 -1
-22 -18 c-15 -13 -20 -25 -16 -41 5 -20 4 -21 -17 -10 -16 9 -25 9 -33 1 -17
-17 -26 -13 -20 9 3 12 -2 29 -12 40 -18 19 -17 20 7 20 18 0 28 7 32 23 l7
22 11 -22 c7 -15 20 -23 37 -23z"/>
<path d="M320 2560 l0 -110 2240 0 2240 0 0 110 0 110 -2240 0 -2240 0 0 -110z"/>
<path d="M320 2115 l0 -105 2240 0 2240 0 0 105 0 105 -2240 0 -2240 0 0 -105z"/>
<path d="M320 1670 l0 -110 2240 0 2240 0 0 110 0 110 -2240 0 -2240 0 0 -110z"/>
<path d="M320 1220 l0 -110 2240 0 2240 0 0 110 0 110 -2240 0 -2240 0 0 -110z"/>
</g>
</svg>
